<svg xmlns="http://www.w3.org/2000/svg" viewBox="0 0 20 16">
  <path fill="#FFF" fill-rule="evenodd" d="M70,13.8937897 C69.264375,14.2149587 68.473125,14.4321477 67.643125,14.529975 C68.490625,14.0297635 69.14125,13.2385311 69.4475,12.2953278 C68.655,12.7580081 67.77625,13.0939435 66.841875,13.275447 C66.093125,12.4903672 65.026875,12 63.846875,12 C61.580625,12 59.74375,13.8082676 59.74375,16.0392232 C59.74375,16.3554701 59.78,16.6637185 59.85,16.9596616 C56.439375,16.7910786 53.41625,15.1827725 51.3925,12.7389348 C51.039375,13.3357431 50.836875,14.0297635 50.836875,14.7699289 C50.836875,16.1708902 51.56125,17.4075755 52.661875,18.1317439 C51.989375,18.1108248 51.356875,17.9293213 50.80375,17.6266103 C50.803125,17.6438377 50.803125,17.6604499 50.803125,17.6776774 C50.803125,19.6348395 52.2175,21.2671409 54.095,21.6381465 C53.750625,21.7304365 53.388125,21.7796578 53.01375,21.7796578 C52.749375,21.7796578 52.4925,21.7544318 52.241875,21.7076716 C52.76375,23.3122861 54.279375,24.4800615 56.075,24.5126706 C54.670625,25.5961546 52.90125,26.2415689 50.97875,26.2415689 C50.6475,26.2415689 50.32125,26.2224957 50,26.1855797 C51.815625,27.3312055 53.9725,28 56.29,28 C63.8375,28 67.964375,21.844876 67.964375,16.5074409 C67.964375,16.33209 67.960625,16.1579696 67.9525,15.9844645 C68.754375,15.4153432 69.45,14.7040954 70,13.8937897" transform="translate(-50 -12)"/>
</svg>
